{
  "source": "C:\\Users\\Peter\\Desktop\\stuff\\MIUN\\quantitative_research\\video_compression\\videos\\BVI-HD\\BVI-HD_CDVL_videos\\ORIG\\PlasmaSlowRandom_1920x1080_60fps.mp4",
  "output": "C:\\Users\\Peter\\Desktop\\stuff\\MIUN\\quantitative_research\\video_compression\\compressed_videos\\BVI-HD\\hevc\\2.5\\PlasmaSlowRandom_1920x1080_60fps_hevc.mp4",
  "codec": "hevc",
  "ok": "Input #0, mov,mp4,m4a,3gp,3g2,mj2, from 'C:\\Users\\Peter\\Desktop\\stuff\\MIUN\\quantitative_research\\video_compression\\videos\\BVI-HD\\BVI-HD_CDVL_videos\\ORIG\\PlasmaSlowRandom_1920x1080_60fps.mp4':\n  Metadata:\n    major_brand     : isom\n    minor_version   : 512\n    compatible_brands: isomiso2avc1mp41\n    encoder         : Lavf54.28.101\n  Duration: 00:00:05.00, start: 0.000000, bitrate: 23030 kb/s\n  Stream #0:0[0x1](und): Video: h264 (High 4:4:4 Predictive) (avc1 / 0x31637661), yuv420p(progressive), 1920x1080, 23026 kb/s, 60 fps, 60 tbr, 60 tbn (default)\n    Metadata:\n      handler_name    : VideoHandler\n      vendor_id       : [0][0][0][0]\n[out#0/mp4 @ 000002986d771000] Codec AVOption b:a (set bitrate (in bits/s)) has not been used for any stream. The most likely reason is either wrong type (e.g. a video option with no video streams) or that it is a private option of some decoder which was not actually used for any stream.\nStream mapping:\n  Stream #0:0 -> #0:0 (h264 (native) -> hevc (libx265))\nPress [q] to stop, [?] for help\n[libx265 @ 000002986ddcd540] Unknown option: \"aq-mode.\nx265 [info]: HEVC encoder version 4.1+190-8f11c33ac\nx265 [info]: build info [Windows][GCC 15.1.0][64 bit] 10bit\nx265 [info]: using cpu capabilities: MMX2 SSE2Fast LZCNT SSSE3 SSE4.2 AVX FMA3 BMI2 AVX2\nx265 [info]: Main 10 profile, Level-4.1 (Main tier)\nx265 [info]: Thread pool created using 12 threads\nx265 [info]: Slices                              : 1\nx265 [info]: frame threads / pool features       : 3 / wpp(17 rows)\nx265 [info]: Coding QT: max CU size, min CU size : 64 / 8\nx265 [info]: Residual QT: max TU size, max depth : 32 / 1 inter / 1 intra\nx265 [info]: ME / range / subpel / merge         : star / 57 / 3 / 3\nx265 [info]: Keyframe min / max / scenecut / bias  : 25 / 250 / 40 / 5.00 \nx265 [info]: Lookahead / bframes / badapt        : 25 / 4 / 2\nx265 [info]: b-pyramid / weightp / weightb       : 1 / 1 / 0\nx265 [info]: References / ref-limit  cu / depth  : 4 / on / on\nx265 [info]: AQ: mode / str / qg-size / cu-tree  : 2 / 1.0 / 32 / 1\nx265 [info]: Rate Control / qCompress            : ABR-2500 kbps / 0.60\nx265 [info]: VBV/HRD buffer / max-rate / init    : 2500 / 2500 / 0.750\nx265 [info]: tools: rect limit-modes rd=4 psy-rd=2.00 rdoq=2 psy-rdoq=1.00\nx265 [info]: tools: rskip mode=1 signhide tmvp strong-intra-smoothing lslices=4\nx265 [info]: tools: deblock sao dhdr10-info\nOutput #0, mp4, to 'C:\\Users\\Peter\\Desktop\\stuff\\MIUN\\quantitative_research\\video_compression\\compressed_videos\\BVI-HD\\hevc\\2.5\\PlasmaSlowRandom_1920x1080_60fps_hevc.mp4':\n  Metadata:\n    major_brand     : isom\n    minor_version   : 512\n    compatible_brands: isomiso2avc1mp41\n    encoder         : Lavf62.3.100\n  Stream #0:0(und): Video: hevc (hev1 / 0x31766568), yuv420p10le(tv, progressive), 1920x1080, q=2-31, 2500 kb/s, 60 fps, 15360 tbn (default)\n    Metadata:\n      encoder         : Lavc62.11.100 libx265\n      handler_name    : VideoHandler\n      vendor_id       : [0][0][0][0]\n    Side data:\n      cpb: bitrate max/min/avg: 2500000/0/2500000 buffer size: 2500000 vbv_delay: N/A\nframe=    0 fps=0.0 q=0.0 size=       0KiB time=N/A bitrate=N/A speed=N/A elapsed=0:00:00.52    \nframe=    0 fps=0.0 q=0.0 size=       0KiB time=N/A bitrate=N/A speed=N/A elapsed=0:00:01.03    \nframe=    0 fps=0.0 q=0.0 size=       0KiB time=N/A bitrate=N/A speed=N/A elapsed=0:00:01.55    \nframe=    0 fps=0.0 q=0.0 size=       0KiB time=N/A bitrate=N/A speed=N/A elapsed=0:00:02.07    \nframe=    0 fps=0.0 q=0.0 size=       0KiB time=N/A bitrate=N/A speed=N/A elapsed=0:00:02.58    \nframe=    1 fps=0.3 q=39.5 size=       0KiB time=-00:00:00.01 bitrate=N/A speed=N/A elapsed=0:00:03.10    \nframe=    3 fps=0.8 q=37.4 size=       0KiB time=00:00:00.01 bitrate=  21.1kbits/s speed=0.00462x elapsed=0:00:03.60    \nframe=    4 fps=1.0 q=37.4 size=       0KiB time=00:00:00.03 bitrate=  10.6kbits/s speed=0.00808x elapsed=0:00:04.12    \nframe=    6 fps=1.3 q=37.6 size=       0KiB time=00:00:00.06 bitrate=   5.3kbits/s speed=0.0143x elapsed=0:00:04.65    \nframe=    7 fps=1.4 q=35.5 size=       0KiB time=00:00:00.08 bitrate=   4.2kbits/s speed=0.0162x elapsed=0:00:05.15    \nframe=    9 fps=1.6 q=34.6 size=       0KiB time=00:00:00.11 bitrate=   3.0kbits/s speed=0.0205x elapsed=0:00:05.67    \nframe=   11 fps=1.8 q=30.9 size=       0KiB time=00:00:00.15 bitrate=   2.3kbits/s speed=0.0242x elapsed=0:00:06.18    \nframe=   12 fps=1.8 q=30.8 size=       0KiB time=00:00:00.16 bitrate=   2.1kbits/s speed=0.0249x elapsed=0:00:06.70    \nframe=   14 fps=1.9 q=30.2 size=       0KiB time=00:00:00.20 bitrate=   1.8kbits/s speed=0.0277x elapsed=0:00:07.22    \nframe=   15 fps=1.9 q=30.7 size=       0KiB time=00:00:00.21 bitrate=   1.6kbits/s speed=0.028x elapsed=0:00:07.74    \nframe=   16 fps=1.9 q=29.4 size=       0KiB time=00:00:00.23 bitrate=   1.5kbits/s speed=0.0282x elapsed=0:00:08.26    \nframe=   18 fps=2.0 q=28.9 size=       0KiB time=00:00:00.26 bitrate=   1.3kbits/s speed=0.0304x elapsed=0:00:08.78    \nframe=   20 fps=2.1 q=29.2 size=       0KiB time=00:00:00.28 bitrate=   1.2kbits/s speed=0.0304x elapsed=0:00:09.31    \nframe=   22 fps=2.2 q=28.2 size=       0KiB time=00:00:00.33 bitrate=   1.1kbits/s speed=0.0339x elapsed=0:00:09.83    \nframe=   24 fps=2.3 q=27.5 size=       0KiB time=00:00:00.36 bitrate=   1.0kbits/s speed=0.0354x elapsed=0:00:10.36    \nframe=   25 fps=2.3 q=27.4 size=       0KiB time=00:00:00.38 bitrate=   0.9kbits/s speed=0.0353x elapsed=0:00:10.87    \nframe=   26 fps=2.3 q=25.2 size=       0KiB time=00:00:00.40 bitrate=   0.9kbits/s speed=0.0351x elapsed=0:00:11.39    \nframe=   28 fps=2.3 q=25.3 size=       0KiB time=00:00:00.43 bitrate=   0.8kbits/s speed=0.0364x elapsed=0:00:11.91    \nframe=   31 fps=2.5 q=27.4 size=       0KiB time=00:00:00.48 bitrate=   0.7kbits/s speed=0.0389x elapsed=0:00:12.42    \nframe=   32 fps=2.5 q=27.4 size=       0KiB time=00:00:00.50 bitrate=   0.7kbits/s speed=0.0386x elapsed=0:00:12.94    \nframe=   33 fps=2.5 q=25.1 size=       0KiB time=00:00:00.51 bitrate=   0.7kbits/s speed=0.0384x elapsed=0:00:13.45    \nframe=   34 fps=2.4 q=26.3 size=       0KiB time=00:00:00.53 bitrate=   0.7kbits/s speed=0.0382x elapsed=0:00:13.96    \nframe=   36 fps=2.5 q=27.4 size=       0KiB time=00:00:00.56 bitrate=   0.6kbits/s speed=0.0391x elapsed=0:00:14.48    \nframe=   37 fps=2.5 q=25.1 size=       0KiB time=00:00:00.58 bitrate=   0.6kbits/s speed=0.0388x elapsed=0:00:15.03    \nframe=   38 fps=2.4 q=27.4 size=       0KiB time=00:00:00.60 bitrate=   0.6kbits/s speed=0.0386x elapsed=0:00:15.54    \nframe=   39 fps=2.4 q=25.3 size=       0KiB time=00:00:00.61 bitrate=   0.6kbits/s speed=0.0384x elapsed=0:00:16.06    \nframe=   40 fps=2.4 q=27.1 size=       0KiB time=00:00:00.63 bitrate=   0.6kbits/s speed=0.0382x elapsed=0:00:16.57    \nframe=   42 fps=2.5 q=28.3 size=       0KiB time=00:00:00.66 bitrate=   0.5kbits/s speed=0.039x elapsed=0:00:17.09    \nframe=   43 fps=2.4 q=28.4 size=       0KiB time=00:00:00.68 bitrate=   0.5kbits/s speed=0.0388x elapsed=0:00:17.61    \nframe=   44 fps=2.4 q=26.2 size=       0KiB time=00:00:00.70 bitrate=   0.5kbits/s speed=0.0385x elapsed=0:00:18.15    \nframe=   45 fps=2.4 q=27.0 size=       0KiB time=00:00:00.71 bitrate=   0.5kbits/s speed=0.0383x elapsed=0:00:18.69    \nframe=   46 fps=2.4 q=28.4 size=       0KiB time=00:00:00.73 bitrate=   0.5kbits/s speed=0.0382x elapsed=0:00:19.21    \nframe=   47 fps=2.4 q=26.4 size=       0KiB time=00:00:00.75 bitrate=   0.5kbits/s speed=0.038x elapsed=0:00:19.72    \nframe=   47 fps=2.3 q=26.4 size=       0KiB time=00:00:00.75 bitrate=   0.5kbits/s speed=0.037x elapsed=0:00:20.25    \nframe=   49 fps=2.4 q=28.5 size=       0KiB time=00:00:00.78 bitrate=   0.4kbits/s speed=0.0377x elapsed=0:00:20.79    \nframe=   50 fps=2.3 q=28.6 size=       0KiB time=00:00:00.80 bitrate=   0.4kbits/s speed=0.0376x elapsed=0:00:21.29    \nframe=   51 fps=2.3 q=28.6 size=       0KiB time=00:00:00.81 bitrate=   0.4kbits/s speed=0.0374x elapsed=0:00:21.83    \nframe=   54 fps=2.4 q=28.6 size=       0KiB time=00:00:00.86 bitrate=   0.4kbits/s speed=0.0388x elapsed=0:00:22.35    \nframe=   55 fps=2.4 q=28.6 size=       0KiB time=00:00:00.88 bitrate=   0.4kbits/s speed=0.0386x elapsed=0:00:22.85    \nframe=   55 fps=2.4 q=28.6 size=       0KiB time=00:00:00.88 bitrate=   0.4kbits/s speed=0.0378x elapsed=0:00:23.38    \nframe=   56 fps=2.3 q=28.6 size=     256KiB time=00:00:00.90 bitrate=2330.6kbits/s speed=0.0377x elapsed=0:00:23.90    \nframe=   58 fps=2.4 q=27.6 size=     256KiB time=00:00:00.93 bitrate=2247.3kbits/s speed=0.0382x elapsed=0:00:24.40    \nframe=   60 fps=2.4 q=28.6 size=     256KiB time=00:00:00.96 bitrate=2169.8kbits/s speed=0.0388x elapsed=0:00:24.93    \nframe=   60 fps=2.4 q=28.6 size=     256KiB time=00:00:00.96 bitrate=2169.8kbits/s speed=0.038x elapsed=0:00:25.46    \nframe=   61 fps=2.3 q=28.7 size=     256KiB time=00:00:00.98 bitrate=2133.1kbits/s speed=0.0378x elapsed=0:00:26.00    \nframe=   62 fps=2.3 q=26.4 size=     256KiB time=00:00:01.00 bitrate=2097.5kbits/s speed=0.0377x elapsed=0:00:26.53    \nframe=   63 fps=2.3 q=27.5 size=     256KiB time=00:00:01.01 bitrate=2063.1kbits/s speed=0.0376x elapsed=0:00:27.04    \nframe=   64 fps=2.3 q=28.7 size=     256KiB time=00:00:01.03 bitrate=2029.8kbits/s speed=0.0374x elapsed=0:00:27.61    \nframe=   67 fps=2.4 q=29.6 size=     256KiB time=00:00:01.08 bitrate=1936.2kbits/s speed=0.0385x elapsed=0:00:28.13    \nframe=   68 fps=2.4 q=29.6 size=     256KiB time=00:00:01.10 bitrate=1906.8kbits/s speed=0.0384x elapsed=0:00:28.63    \nframe=   69 fps=2.4 q=29.6 size=     256KiB time=00:00:01.11 bitrate=1878.4kbits/s speed=0.0383x elapsed=0:00:29.16    \nframe=   70 fps=2.4 q=27.3 size=     256KiB time=00:00:01.13 bitrate=1850.7kbits/s speed=0.0382x elapsed=0:00:29.69    \nframe=   72 fps=2.4 q=29.7 size=     256KiB time=00:00:01.16 bitrate=1797.9kbits/s speed=0.0386x elapsed=0:00:30.22    \nframe=   72 fps=2.3 q=29.7 size=     256KiB time=00:00:01.16 bitrate=1797.9kbits/s speed=0.038x elapsed=0:00:30.74    \nframe=   74 fps=2.4 q=29.6 size=     256KiB time=00:00:01.20 bitrate=1747.9kbits/s speed=0.0384x elapsed=0:00:31.26    \nframe=   75 fps=2.4 q=26.2 size=     256KiB time=00:00:01.21 bitrate=1724.0kbits/s speed=0.0383x elapsed=0:00:31.79    \nframe=   75 fps=2.3 q=26.2 size=     256KiB time=00:00:01.21 bitrate=1724.0kbits/s speed=0.0376x elapsed=0:00:32.31    \nframe=   76 fps=2.3 q=28.3 size=     256KiB time=00:00:01.23 bitrate=1700.7kbits/s speed=0.0375x elapsed=0:00:32.84    \nframe=   76 fps=2.3 q=28.3 size=     256KiB time=00:00:01.23 bitrate=1700.7kbits/s speed=0.037x elapsed=0:00:33.37    \nframe=   77 fps=2.3 q=29.6 size=     256KiB time=00:00:01.25 bitrate=1678.0kbits/s speed=0.0369x elapsed=0:00:33.89    \nframe=   78 fps=2.3 q=29.6 size=     256KiB time=00:00:01.26 bitrate=1655.9kbits/s speed=0.0368x elapsed=0:00:34.40    \nframe=   78 fps=2.2 q=29.6 size=     256KiB time=00:00:01.26 bitrate=1655.9kbits/s speed=0.0362x elapsed=0:00:34.97    \nframe=   80 fps=2.3 q=27.1 size=     256KiB time=00:00:01.30 bitrate=1613.5kbits/s speed=0.0366x elapsed=0:00:35.49    \nframe=   81 fps=2.2 q=28.4 size=     256KiB time=00:00:01.31 bitrate=1593.0kbits/s speed=0.0365x elapsed=0:00:36.03    \nframe=   83 fps=2.3 q=27.1 size=     256KiB time=00:00:01.35 bitrate=1553.7kbits/s speed=0.0369x elapsed=0:00:36.56    \nframe=   84 fps=2.3 q=28.5 size=     256KiB time=00:00:01.36 bitrate=1534.8kbits/s speed=0.0368x elapsed=0:00:37.09    \nframe=   85 fps=2.3 q=29.6 size=     256KiB time=00:00:01.38 bitrate=1516.3kbits/s speed=0.0367x elapsed=0:00:37.65    \nframe=   85 fps=2.2 q=29.6 size=     256KiB time=00:00:01.38 bitrate=1516.3kbits/s speed=0.0362x elapsed=0:00:38.18    \nframe=   86 fps=2.2 q=29.5 size=     256KiB time=00:00:01.40 bitrate=1498.2kbits/s speed=0.0362x elapsed=0:00:38.71    \nframe=   87 fps=2.2 q=29.5 size=     256KiB time=00:00:01.41 bitrate=1480.6kbits/s speed=0.0361x elapsed=0:00:39.24    \nframe=   88 fps=2.2 q=26.9 size=     256KiB time=00:00:01.43 bitrate=1463.4kbits/s speed=0.0361x elapsed=0:00:39.75    \nframe=   89 fps=2.2 q=28.4 size=     256KiB time=00:00:01.45 bitrate=1446.6kbits/s speed=0.036x elapsed=0:00:40.26    \nframe=   89 fps=2.2 q=28.4 size=     256KiB time=00:00:01.45 bitrate=1446.6kbits/s speed=0.0356x elapsed=0:00:40.78    \nframe=   90 fps=2.2 q=29.5 size=     256KiB time=00:00:01.46 bitrate=1430.1kbits/s speed=0.0355x elapsed=0:00:41.31    \nframe=   91 fps=2.2 q=27.6 size=     256KiB time=00:00:01.48 bitrate=1414.0kbits/s speed=0.0354x elapsed=0:00:41.85    \nframe=   92 fps=2.2 q=29.3 size=     256KiB time=00:00:01.50 bitrate=1398.3kbits/s speed=0.0354x elapsed=0:00:42.36    \nframe=   93 fps=2.2 q=30.3 size=     256KiB time=00:00:01.51 bitrate=1383.0kbits/s speed=0.0354x elapsed=0:00:42.88    \nframe=   93 fps=2.1 q=30.3 size=     256KiB time=00:00:01.51 bitrate=1383.0kbits/s speed=0.035x elapsed=0:00:43.38    \nframe=   94 fps=2.1 q=30.4 size=     256KiB time=00:00:01.53 bitrate=1367.9kbits/s speed=0.0349x elapsed=0:00:43.90    \nframe=   95 fps=2.1 q=30.4 size=     256KiB time=00:00:01.55 bitrate=1353.2kbits/s speed=0.0349x elapsed=0:00:44.44    \nframe=   96 fps=2.1 q=26.7 size=     256KiB time=00:00:01.56 bitrate=1338.8kbits/s speed=0.0348x elapsed=0:00:44.97    \nframe=   98 fps=2.2 q=30.3 size=     256KiB time=00:00:01.60 bitrate=1310.9kbits/s speed=0.0352x elapsed=0:00:45.51    \nframe=   98 fps=2.1 q=30.3 size=     256KiB time=00:00:01.60 bitrate=1310.9kbits/s speed=0.0348x elapsed=0:00:46.04    \nframe=   99 fps=2.1 q=29.4 size=     256KiB time=00:00:01.61 bitrate=1297.4kbits/s speed=0.0347x elapsed=0:00:46.55    \nframe=   99 fps=2.1 q=29.4 size=     256KiB time=00:00:01.61 bitrate=1297.4kbits/s speed=0.0343x elapsed=0:00:47.07    \nframe=  100 fps=2.1 q=29.4 size=     256KiB time=00:00:01.63 bitrate=1284.2kbits/s speed=0.0343x elapsed=0:00:47.60    \nframe=  101 fps=2.1 q=26.7 size=     256KiB time=00:00:01.65 bitrate=1271.2kbits/s speed=0.0343x elapsed=0:00:48.12    \nframe=  102 fps=2.1 q=28.0 size=     256KiB time=00:00:01.66 bitrate=1258.5kbits/s speed=0.0343x elapsed=0:00:48.65    \nframe=  103 fps=2.1 q=29.4 size=     256KiB time=00:00:01.68 bitrate=1246.0kbits/s speed=0.0342x elapsed=0:00:49.18    \nframe=  104 fps=2.1 q=29.3 size=     256KiB time=00:00:01.70 bitrate=1233.8kbits/s speed=0.0342x elapsed=0:00:49.70    \nframe=  105 fps=2.1 q=29.4 size=     512KiB time=00:00:01.71 bitrate=2443.5kbits/s speed=0.0342x elapsed=0:00:50.22    \nframe=  107 fps=2.1 q=27.9 size=     512KiB time=00:00:01.75 bitrate=2396.9kbits/s speed=0.0345x elapsed=0:00:50.74    \nframe=  107 fps=2.1 q=27.9 size=     512KiB time=00:00:01.75 bitrate=2396.9kbits/s speed=0.0341x elapsed=0:00:51.27    \nframe=  109 fps=2.1 q=27.0 size=     512KiB time=00:00:01.78 bitrate=2352.1kbits/s speed=0.0344x elapsed=0:00:51.79    \nframe=  110 fps=2.1 q=27.7 size=     512KiB time=00:00:01.80 bitrate=2330.4kbits/s speed=0.0344x elapsed=0:00:52.30    \nframe=  111 fps=2.1 q=30.2 size=     512KiB time=00:00:01.81 bitrate=2309.0kbits/s speed=0.0344x elapsed=0:00:52.82    \nframe=  112 fps=2.1 q=30.2 size=     512KiB time=00:00:01.83 bitrate=2288.0kbits/s speed=0.0344x elapsed=0:00:53.32    \nframe=  113 fps=2.1 q=30.3 size=     512KiB time=00:00:01.85 bitrate=2267.4kbits/s speed=0.0344x elapsed=0:00:53.84    \nframe=  113 fps=2.1 q=30.3 size=     512KiB time=00:00:01.85 bitrate=2267.4kbits/s speed=0.034x elapsed=0:00:54.36    \nframe=  115 fps=2.1 q=28.1 size=     512KiB time=00:00:01.88 bitrate=2227.3kbits/s speed=0.0343x elapsed=0:00:54.87    \nframe=  115 fps=2.1 q=28.1 size=     512KiB time=00:00:01.88 bitrate=2227.3kbits/s speed=0.034x elapsed=0:00:55.42    \nframe=  116 fps=2.1 q=30.2 size=     512KiB time=00:00:01.90 bitrate=2207.7kbits/s speed=0.0339x elapsed=0:00:55.97    \nframe=  118 fps=2.1 q=28.3 size=     512KiB time=00:00:01.93 bitrate=2169.7kbits/s speed=0.0342x elapsed=0:00:56.48    \nframe=  120 fps=2.1 q=30.2 size=     512KiB time=00:00:01.96 bitrate=2132.9kbits/s speed=0.0345x elapsed=0:00:57.00    \nframe=  122 fps=2.1 q=30.3 size=     512KiB time=00:00:02.00 bitrate=2097.3kbits/s speed=0.0348x elapsed=0:00:57.55    \nframe=  123 fps=2.1 q=26.7 size=     512KiB time=00:00:02.01 bitrate=2080.0kbits/s speed=0.0347x elapsed=0:00:58.06    \nframe=  124 fps=2.1 q=28.2 size=     512KiB time=00:00:02.03 bitrate=2062.9kbits/s speed=0.0347x elapsed=0:00:58.59    \nframe=  127 fps=2.1 q=26.5 size=     512KiB time=00:00:02.08 bitrate=2013.4kbits/s speed=0.0352x elapsed=0:00:59.12    \nframe=  128 fps=2.1 q=27.8 size=     512KiB time=00:00:02.10 bitrate=1997.5kbits/s speed=0.0352x elapsed=0:00:59.64    \nframe=  130 fps=2.2 q=30.2 size=     512KiB time=00:00:02.13 bitrate=1966.2kbits/s speed=0.0355x elapsed=0:01:00.15    \nframe=  131 fps=2.2 q=30.2 size=     512KiB time=00:00:02.15 bitrate=1951.0kbits/s speed=0.0354x elapsed=0:01:00.67    \nframe=  132 fps=2.2 q=26.9 size=     512KiB time=00:00:02.16 bitrate=1936.0kbits/s speed=0.0354x elapsed=0:01:01.19    \nframe=  133 fps=2.2 q=28.4 size=     512KiB time=00:00:02.18 bitrate=1921.2kbits/s speed=0.0354x elapsed=0:01:01.71    \nframe=  135 fps=2.2 q=30.2 size=     512KiB time=00:00:02.21 bitrate=1892.3kbits/s speed=0.0356x elapsed=0:01:02.22    \nframe=  137 fps=2.2 q=27.4 size=     512KiB time=00:00:02.25 bitrate=1864.3kbits/s speed=0.0359x elapsed=0:01:02.74    \nframe=  138 fps=2.2 q=28.9 size=     512KiB time=00:00:02.26 bitrate=1850.6kbits/s speed=0.0358x elapsed=0:01:03.28    \nframe=  140 fps=2.2 q=30.2 size=     512KiB time=00:00:02.30 bitrate=1823.8kbits/s speed=0.036x elapsed=0:01:03.81    \nframe=  141 fps=2.2 q=30.2 size=     512KiB time=00:00:02.31 bitrate=1810.6kbits/s speed=0.036x elapsed=0:01:04.33    \nframe=  142 fps=2.2 q=26.2 size=     512KiB time=00:00:02.33 bitrate=1797.7kbits/s speed=0.036x elapsed=0:01:04.85    \nframe=  143 fps=2.2 q=28.0 size=     512KiB time=00:00:02.35 bitrate=1785.0kbits/s speed=0.0359x elapsed=0:01:05.37    \nframe=  145 fps=2.2 q=30.2 size=     512KiB time=00:00:02.38 bitrate=1760.0kbits/s speed=0.0362x elapsed=0:01:05.89    \nframe=  145 fps=2.2 q=30.2 size=     512KiB time=00:00:02.38 bitrate=1760.0kbits/s speed=0.0359x elapsed=0:01:06.42    \nframe=  146 fps=2.2 q=25.9 size=     512KiB time=00:00:02.40 bitrate=1747.8kbits/s speed=0.0359x elapsed=0:01:06.93    \nframe=  147 fps=2.2 q=27.7 size=     512KiB time=00:00:02.41 bitrate=1735.7kbits/s speed=0.0358x elapsed=0:01:07.45    \nframe=  149 fps=2.2 q=29.3 size=     512KiB time=00:00:02.45 bitrate=1712.1kbits/s speed=0.036x elapsed=0:01:07.97    \nframe=  151 fps=2.2 q=26.1 size=     512KiB time=00:00:02.48 bitrate=1689.1kbits/s speed=0.0362x elapsed=0:01:08.51    \nframe=  151 fps=2.2 q=26.1 size=     512KiB time=00:00:02.48 bitrate=1689.1kbits/s speed=0.036x elapsed=0:01:09.01    \nframe=  153 fps=2.2 q=29.2 size=     768KiB time=00:00:02.51 bitrate=2500.1kbits/s speed=0.0362x elapsed=0:01:09.53    \nframe=  154 fps=2.2 q=30.0 size=     768KiB time=00:00:02.53 bitrate=2483.6kbits/s speed=0.0362x elapsed=0:01:10.07    \nframe=  155 fps=2.2 q=26.4 size=     768KiB time=00:00:02.55 bitrate=2467.4kbits/s speed=0.0361x elapsed=0:01:10.59    \nframe=  155 fps=2.2 q=26.4 size=     768KiB time=00:00:02.55 bitrate=2467.4kbits/s speed=0.0359x elapsed=0:01:11.11    \nframe=  157 fps=2.2 q=30.1 size=     768KiB time=00:00:02.58 bitrate=2435.5kbits/s speed=0.0361x elapsed=0:01:11.62    \nframe=  158 fps=2.2 q=26.5 size=     768KiB time=00:00:02.60 bitrate=2419.9kbits/s speed=0.036x elapsed=0:01:12.14    \nframe=  159 fps=2.2 q=28.1 size=     768KiB time=00:00:02.61 bitrate=2404.5kbits/s speed=0.036x elapsed=0:01:12.65    \nframe=  162 fps=2.2 q=26.5 size=     768KiB time=00:00:02.66 bitrate=2359.4kbits/s speed=0.0364x elapsed=0:01:13.17    \nframe=  163 fps=2.2 q=28.0 size=     768KiB time=00:00:02.68 bitrate=2344.8kbits/s speed=0.0364x elapsed=0:01:13.68    \nframe=  164 fps=2.2 q=29.9 size=     768KiB time=00:00:02.70 bitrate=2330.3kbits/s speed=0.0364x elapsed=0:01:14.20    \nframe=  166 fps=2.2 q=26.5 size=     768KiB time=00:00:02.73 bitrate=2301.9kbits/s speed=0.0366x elapsed=0:01:14.71    \nframe=  168 fps=2.2 q=26.4 size=     768KiB time=00:00:02.76 bitrate=2274.1kbits/s speed=0.0368x elapsed=0:01:15.24    \nframe=  169 fps=2.2 q=27.7 size=     768KiB time=00:00:02.78 bitrate=2260.5kbits/s speed=0.0367x elapsed=0:01:15.77    \nframe=  171 fps=2.2 q=30.0 size=     768KiB time=00:00:02.81 bitrate=2233.8kbits/s speed=0.0369x elapsed=0:01:16.33    \nframe=  172 fps=2.2 q=30.0 size=     768KiB time=00:00:02.83 bitrate=2220.6kbits/s speed=0.0369x elapsed=0:01:16.85    \nframe=  174 fps=2.2 q=27.8 size=     768KiB time=00:00:02.86 bitrate=2194.8kbits/s speed=0.037x elapsed=0:01:17.37    \nframe=  176 fps=2.3 q=30.0 size=     768KiB time=00:00:02.90 bitrate=2169.6kbits/s speed=0.0372x elapsed=0:01:17.90    \nframe=  177 fps=2.3 q=26.9 size=     768KiB time=00:00:02.91 bitrate=2157.2kbits/s speed=0.0372x elapsed=0:01:18.42    \nframe=  179 fps=2.3 q=30.1 size=     768KiB time=00:00:02.95 bitrate=2132.8kbits/s speed=0.0374x elapsed=0:01:18.96    \nframe=  181 fps=2.3 q=27.0 size=     768KiB time=00:00:02.98 bitrate=2109.0kbits/s speed=0.0375x elapsed=0:01:19.48    \nframe=  182 fps=2.3 q=28.0 size=     768KiB time=00:00:03.00 bitrate=2097.3kbits/s speed=0.0375x elapsed=0:01:20.01    \nframe=  184 fps=2.3 q=30.0 size=     768KiB time=00:00:03.03 bitrate=2074.2kbits/s speed=0.0377x elapsed=0:01:20.53    \nframe=  186 fps=2.3 q=27.2 size=     768KiB time=00:00:03.06 bitrate=2051.7kbits/s speed=0.0378x elapsed=0:01:21.05    \nframe=  189 fps=2.3 q=30.1 size=     768KiB time=00:00:03.11 bitrate=2018.8kbits/s speed=0.0382x elapsed=0:01:21.57    \nframe=  191 fps=2.3 q=26.9 size=     768KiB time=00:00:03.15 bitrate=1997.4kbits/s speed=0.0384x elapsed=0:01:22.10    \nframe=  192 fps=2.3 q=28.1 size=     768KiB time=00:00:03.16 bitrate=1986.9kbits/s speed=0.0383x elapsed=0:01:22.64    \nframe=  192 fps=2.3 q=28.1 size=     768KiB time=00:00:03.16 bitrate=1986.9kbits/s speed=0.0381x elapsed=0:01:23.16    \nframe=  194 fps=2.3 q=27.2 size=     768KiB time=00:00:03.20 bitrate=1966.2kbits/s speed=0.0382x elapsed=0:01:23.68    \nframe=  195 fps=2.3 q=28.3 size=     768KiB time=00:00:03.21 bitrate=1956.0kbits/s speed=0.0382x elapsed=0:01:24.20    \nframe=  195 fps=2.3 q=28.3 size=     768KiB time=00:00:03.21 bitrate=1956.0kbits/s speed=0.038x elapsed=0:01:24.73    \nframe=  197 fps=2.3 q=29.4 size=     768KiB time=00:00:03.25 bitrate=1935.9kbits/s speed=0.0381x elapsed=0:01:25.26    \nframe=  199 fps=2.3 q=28.3 size=     768KiB time=00:00:03.28 bitrate=1916.3kbits/s speed=0.0383x elapsed=0:01:25.78    \nframe=  202 fps=2.3 q=26.7 size=     768KiB time=00:00:03.33 bitrate=1887.5kbits/s speed=0.0386x elapsed=0:01:26.30    \nframe=  203 fps=2.3 q=28.4 size=     768KiB time=00:00:03.35 bitrate=1878.2kbits/s speed=0.0386x elapsed=0:01:26.82    \nframe=  204 fps=2.3 q=29.5 size=    1024KiB time=00:00:03.36 bitrate=2491.8kbits/s speed=0.0385x elapsed=0:01:27.34    \nframe=  206 fps=2.3 q=26.9 size=    1024KiB time=00:00:03.40 bitrate=2467.3kbits/s speed=0.0387x elapsed=0:01:27.86    \nframe=  207 fps=2.3 q=28.2 size=    1024KiB time=00:00:03.41 bitrate=2455.3kbits/s speed=0.0387x elapsed=0:01:28.37    \nframe=  209 fps=2.4 q=29.5 size=    1024KiB time=00:00:03.45 bitrate=2431.6kbits/s speed=0.0388x elapsed=0:01:28.90    \nframe=  209 fps=2.3 q=29.5 size=    1024KiB time=00:00:03.45 bitrate=2431.6kbits/s speed=0.0386x elapsed=0:01:29.41    \nframe=  211 fps=2.3 q=28.1 size=    1024KiB time=00:00:03.48 bitrate=2408.3kbits/s speed=0.0387x elapsed=0:01:29.92    \nframe=  214 fps=2.4 q=26.4 size=    1024KiB time=00:00:03.53 bitrate=2374.2kbits/s speed=0.0391x elapsed=0:01:30.45    \nframe=  214 fps=2.4 q=26.4 size=    1024KiB time=00:00:03.53 bitrate=2374.2kbits/s speed=0.0388x elapsed=0:01:30.97    \nframe=  217 fps=2.4 q=30.2 size=    1024KiB time=00:00:03.58 bitrate=2341.1kbits/s speed=0.0392x elapsed=0:01:31.49    \nframe=  219 fps=2.4 q=26.8 size=    1024KiB time=00:00:03.61 bitrate=2319.5kbits/s speed=0.0393x elapsed=0:01:32.01    \nframe=  220 fps=2.4 q=28.3 size=    1024KiB time=00:00:03.63 bitrate=2308.9kbits/s speed=0.0393x elapsed=0:01:32.54    \nframe=  221 fps=2.4 q=29.3 size=    1024KiB time=00:00:03.65 bitrate=2298.3kbits/s speed=0.0392x elapsed=0:01:33.07    \nframe=  223 fps=2.4 q=30.1 size=    1024KiB time=00:00:03.68 bitrate=2277.5kbits/s speed=0.0393x elapsed=0:01:33.62    \nframe=  225 fps=2.4 q=28.1 size=    1024KiB time=00:00:03.71 bitrate=2257.1kbits/s speed=0.0395x elapsed=0:01:34.15    \nframe=  227 fps=2.4 q=29.3 size=    1024KiB time=00:00:03.75 bitrate=2237.1kbits/s speed=0.0396x elapsed=0:01:34.68    \nframe=  228 fps=2.4 q=26.9 size=    1024KiB time=00:00:03.76 bitrate=2227.2kbits/s speed=0.0396x elapsed=0:01:35.21    \nframe=  228 fps=2.4 q=26.9 size=    1024KiB time=00:00:03.76 bitrate=2227.2kbits/s speed=0.0393x elapsed=0:01:35.74    \nframe=  229 fps=2.4 q=28.1 size=    1024KiB time=00:00:03.78 bitrate=2217.3kbits/s speed=0.0393x elapsed=0:01:36.27    \nframe=  229 fps=2.4 q=28.1 size=    1024KiB time=00:00:03.78 bitrate=2217.3kbits/s speed=0.0391x elapsed=0:01:36.78    \nframe=  232 fps=2.4 q=26.9 size=    1024KiB time=00:00:03.83 bitrate=2188.4kbits/s speed=0.0394x elapsed=0:01:37.30    \nframe=  233 fps=2.4 q=28.1 size=    1024KiB time=00:00:03.85 bitrate=2179.0kbits/s speed=0.0394x elapsed=0:01:37.83    \nframe=  233 fps=2.4 q=28.1 size=    1024KiB time=00:00:03.85 bitrate=2179.0kbits/s speed=0.0391x elapsed=0:01:38.36    \nframe=  236 fps=2.4 q=30.1 size=    1024KiB time=00:00:03.90 bitrate=2151.0kbits/s speed=0.0394x elapsed=0:01:38.88    \nframe=  237 fps=2.4 q=27.2 size=    1024KiB time=00:00:03.91 bitrate=2141.9kbits/s speed=0.0394x elapsed=0:01:39.41    \nframe=  237 fps=2.4 q=27.2 size=    1024KiB time=00:00:03.91 bitrate=2141.9kbits/s speed=0.0392x elapsed=0:01:39.91    \nframe=  238 fps=2.4 q=28.3 size=    1024KiB time=00:00:03.93 bitrate=2132.8kbits/s speed=0.0392x elapsed=0:01:40.45    \nframe=  241 fps=2.4 q=29.5 size=    1024KiB time=00:00:03.98 bitrate=2106.0kbits/s speed=0.0394x elapsed=0:01:40.99    \nframe=  241 fps=2.4 q=29.5 size=    1024KiB time=00:00:03.98 bitrate=2106.0kbits/s speed=0.0392x elapsed=0:01:41.51    \nframe=  242 fps=2.4 q=27.1 size=    1024KiB time=00:00:04.00 bitrate=2097.2kbits/s speed=0.0392x elapsed=0:01:42.03    \nframe=  242 fps=2.4 q=27.1 size=    1024KiB time=00:00:04.00 bitrate=2097.2kbits/s speed=0.039x elapsed=0:01:42.57    \nframe=  244 fps=2.4 q=29.4 size=    1024KiB time=00:00:04.03 bitrate=2079.9kbits/s speed=0.0391x elapsed=0:01:43.11    \nframe=  245 fps=2.4 q=27.3 size=    1024KiB time=00:00:04.05 bitrate=2071.3kbits/s speed=0.0391x elapsed=0:01:43.63    \nframe=  246 fps=2.4 q=28.6 size=    1024KiB time=00:00:04.06 bitrate=2062.9kbits/s speed=0.039x elapsed=0:01:44.15    \nframe=  247 fps=2.4 q=29.4 size=    1024KiB time=00:00:04.08 bitrate=2054.4kbits/s speed=0.039x elapsed=0:01:44.67    \nframe=  249 fps=2.4 q=29.6 size=    1024KiB time=00:00:04.11 bitrate=2037.8kbits/s speed=0.0391x elapsed=0:01:45.19    \nframe=  250 fps=2.4 q=24.5 size=    1024KiB time=00:00:04.13 bitrate=2029.6kbits/s speed=0.0391x elapsed=0:01:45.70    \nframe=  253 fps=2.4 q=29.6 size=    1024KiB time=00:00:04.18 bitrate=2005.3kbits/s speed=0.0394x elapsed=0:01:46.22    \nframe=  255 fps=2.4 q=28.5 size=    1280KiB time=00:00:04.21 bitrate=2486.8kbits/s speed=0.0395x elapsed=0:01:46.73    \nframe=  257 fps=2.4 q=29.6 size=    1280KiB time=00:00:04.25 bitrate=2467.3kbits/s speed=0.0396x elapsed=0:01:47.25    \nframe=  259 fps=2.4 q=27.5 size=    1280KiB time=00:00:04.28 bitrate=2448.1kbits/s speed=0.0397x elapsed=0:01:47.77    \nframe=  260 fps=2.4 q=28.5 size=    1280KiB time=00:00:04.30 bitrate=2438.6kbits/s speed=0.0397x elapsed=0:01:48.28    \nframe=  263 fps=2.4 q=29.7 size=    1280KiB time=00:00:04.35 bitrate=2410.6kbits/s speed=0.04x elapsed=0:01:48.80    \nframe=  264 fps=2.4 q=26.5 size=    1280KiB time=00:00:04.36 bitrate=2401.4kbits/s speed=0.0399x elapsed=0:01:49.34    \nframe=  267 fps=2.4 q=28.8 size=    1280KiB time=00:00:04.41 bitrate=2374.2kbits/s speed=0.0402x elapsed=0:01:49.84    \nframe=  269 fps=2.4 q=27.6 size=    1280KiB time=00:00:04.45 bitrate=2356.4kbits/s speed=0.0403x elapsed=0:01:50.38    \nframe=  272 fps=2.5 q=28.8 size=    1280KiB time=00:00:04.50 bitrate=2330.2kbits/s speed=0.0406x elapsed=0:01:50.89    \nframe=  273 fps=2.5 q=27.5 size=    1280KiB time=00:00:04.51 bitrate=2321.6kbits/s speed=0.0405x elapsed=0:01:51.41    \nframe=  277 fps=2.5 q=29.7 size=    1280KiB time=00:00:04.58 bitrate=2287.9kbits/s speed=0.041x elapsed=0:01:51.92    \nframe=  281 fps=2.5 q=29.6 size=    1280KiB time=00:00:04.65 bitrate=2255.1kbits/s speed=0.0414x elapsed=0:01:52.43    \nframe=  285 fps=2.5 q=29.6 size=    1280KiB time=00:00:04.71 bitrate=2223.2kbits/s speed=0.0418x elapsed=0:01:52.96    \nframe=  287 fps=2.5 q=27.0 size=    1280KiB time=00:00:04.75 bitrate=2207.6kbits/s speed=0.0419x elapsed=0:01:53.49    \nframe=  289 fps=2.5 q=29.5 size=    1280KiB time=00:00:04.78 bitrate=2192.2kbits/s speed=0.042x elapsed=0:01:53.99    \nframe=  293 fps=2.6 q=28.3 size=    1280KiB time=00:00:04.85 bitrate=2162.1kbits/s speed=0.0423x elapsed=0:01:54.52    \nframe=  296 fps=2.6 q=29.4 size=    1280KiB time=00:00:04.90 bitrate=2140.0kbits/s speed=0.0426x elapsed=0:01:55.03    \nframe=  298 fps=2.6 q=28.2 size=    1280KiB time=00:00:04.93 bitrate=2125.6kbits/s speed=0.0427x elapsed=0:01:55.55    \n[mp4 @ 000002986d771100] Starting second pass: moving the moov atom to the beginning of the file\n[out#0/mp4 @ 000002986d771000] video:1511KiB audio:0KiB subtitle:0KiB other streams:0KiB global headers:2KiB muxing overhead: 0.454133%\nframe=  300 fps=2.6 q=29.5 Lsize=    1518KiB time=00:00:04.96 bitrate=2503.3kbits/s speed=0.043x elapsed=0:01:55.57    \nx265 [info]: frame I:      2, Avg QP:32.00  kb/s: 2262.96 \nx265 [info]: frame P:     71, Avg QP:27.20  kb/s: 3174.90 \nx265 [info]: frame B:    227, Avg QP:29.30  kb/s: 2255.95 \nx265 [info]: Weighted P-Frames: Y:12.7% UV:12.7%\n\nencoded 300 frames in 115.46s (2.60 fps), 2473.48 kb/s, Avg QP:28.82\n",
  "seconds": 115.8148045539856,
  "probe_out": {}
}